<svg width="67" height="16" viewBox="0 0 67 16" fill="none" xmlns="http://www.w3.org/2000/svg">
  <path d="M17.1774 0.167832L19.8767 15.8322H14.7458L13.5411 9.47692L10.3064 15.228H9.57025L6.31324 9.45455L5.1309 15.8322H0L2.6993 0.167832H5.86707L9.94949 7.3958L14.0096 0.167832H17.1774Z" fill="#EFEDFF"/>
  <path d="M29.145 0C33.1512 0.00993388 36.3189 2.30048 37.2938 5.73555L32.2652 7.08078C31.9166 5.58171 30.732 4.5789 29.145 4.56799V0Z" fill="#C3BFE6"/>
  <path d="M28.1103 4.66685C26.7542 5.09082 25.8929 6.35746 25.8929 7.973C25.8929 9.96866 27.2071 11.4321 29.145 11.4321C31.0325 11.4321 32.3576 10.0328 32.3961 8.0614L37.5367 6.68623C37.5993 7.10219 37.6317 7.53167 37.6317 7.973C37.6317 12.6517 33.9563 16 29.145 16C24.2446 16 20.6583 12.6295 20.6583 7.973C20.6583 3.67839 23.8337 0.450265 28.1103 0V4.66685Z" fill="#EFEDFF"/>
  <path d="M38.4133 0.167832H51.0317V4.77762H47.2328V15.8322H42.1233V4.77762H38.4133V0.167832Z" fill="#EFEDFF"/>
  <path d="M59.3397 0.0559441C63.9403 0.0559441 67 2.84921 67 7.02794V15.9441H61.8633V12.8603H56.95V15.9441H51.8133V7.02794C51.8133 2.84921 54.8283 0.0559441 59.3397 0.0559441ZM56.95 7.11733V8.92736H61.8633V7.11733C61.8633 5.82125 60.8807 4.65925 59.4067 4.65925C57.9327 4.65925 56.95 5.82125 56.95 7.11733Z" fill="#EFEDFF"/>
</svg>
