<svg preserveAspectRatio="none" width="100%" height="100%" overflow="visible" style="display: block;" viewBox="0 0 28 28" fill="none" xmlns="http://www.w3.org/2000/svg">
<g id="camera 2" clip-path="url(#clip0_2503_4438)">
<path id="Vector" d="M20 0H8C3.58172 0 0 3.58172 0 8V20C0 24.4183 3.58172 28 8 28H20C24.4183 28 28 24.4183 28 20V8C28 3.58172 24.4183 0 20 0Z" fill="var(--fill-0, #FF801A)"/>
<path id="Vector_2" d="M14.0001 19.9401C13.1801 19.9401 12.4101 19.7851 11.6901 19.4751C10.9801 19.1751 10.3501 18.7551 9.80006 18.2151C9.26006 17.6651 8.83506 17.0301 8.52506 16.3101C8.21506 15.5901 8.06006 14.8201 8.06006 14.0001C8.06006 13.1801 8.21506 12.4101 8.52506 11.6901C8.83506 10.9701 9.26006 10.3401 9.80006 9.80006C10.3501 9.25006 10.9801 8.82506 11.6901 8.52506C12.4101 8.21506 13.1801 8.06006 14.0001 8.06006C14.8201 8.06006 15.5901 8.21506 16.3101 8.52506C17.0301 8.82506 17.6601 9.25006 18.2001 9.80006C18.7501 10.3401 19.1751 10.9701 19.4751 11.6901C19.7851 12.4101 19.9401 13.1801 19.9401 14.0001C19.9401 14.8201 19.7851 15.5901 19.4751 16.3101C19.1751 17.0301 18.7501 17.6651 18.2001 18.2151C17.6601 18.7551 17.0301 19.1751 16.3101 19.4751C15.5901 19.7851 14.8201 19.9401 14.0001 19.9401ZM14.0001 18.9051C14.6801 18.9051 15.3151 18.7801 15.9051 18.5301C16.4951 18.2701 17.0151 17.9151 17.4651 17.4651C17.9151 17.0151 18.2651 16.4951 18.5151 15.9051C18.7751 15.3151 18.9051 14.6801 18.9051 14.0001C18.9051 13.3201 18.7751 12.6851 18.5151 12.0951C18.2651 11.5051 17.9151 10.9851 17.4651 10.5351C17.0151 10.0851 16.4951 9.73506 15.9051 9.48506C15.3151 9.22506 14.6801 9.09506 14.0001 9.09506C13.3201 9.09506 12.6851 9.22506 12.0951 9.48506C11.5051 9.73506 10.9851 10.0851 10.5351 10.5351C10.0851 10.9851 9.73006 11.5051 9.47006 12.0951C9.22006 12.6851 9.09506 13.3201 9.09506 14.0001C9.09506 14.6801 9.22006 15.3151 9.47006 15.9051C9.73006 16.4951 10.0851 17.0151 10.5351 17.4651C10.9851 17.9151 11.5051 18.2701 12.0951 18.5301C12.6851 18.7801 13.3201 18.9051 14.0001 18.9051ZM14.0001 18.1851C13.4201 18.1851 12.8751 18.0801 12.3651 17.8701C11.8651 17.6501 11.4201 17.3501 11.0301 16.9701C10.6501 16.5801 10.3501 16.1351 10.1301 15.6351C9.92006 15.1251 9.81506 14.5801 9.81506 14.0001C9.81506 13.4201 9.92006 12.8801 10.1301 12.3801C10.3501 11.8701 10.6501 11.4251 11.0301 11.0451C11.4201 10.6551 11.8651 10.3551 12.3651 10.1451C12.8751 9.92506 13.4201 9.81506 14.0001 9.81506C14.5801 9.81506 15.1251 9.92506 15.6351 10.1451C16.1451 10.3551 16.5901 10.6551 16.9701 11.0451C17.3601 11.4251 17.6601 11.8701 17.8701 12.3801C18.0901 12.8801 18.2001 13.4201 18.2001 14.0001C18.2001 14.5801 18.0901 15.1251 17.8701 15.6351C17.6601 16.1351 17.3601 16.5801 16.9701 16.9701C16.5901 17.3501 16.1451 17.6501 15.6351 17.8701C15.1251 18.0801 14.5801 18.1851 14.0001 18.1851Z" fill="var(--fill-0, white)"/>
</g>
<defs>
<clipPath id="clip0_2503_4438">
<rect width="28" height="28" fill="white"/>
</clipPath>
</defs>
</svg>
