<svg preserveAspectRatio="none" width="100%" height="100%" overflow="visible" style="display: block;" viewBox="0 0 30 30" fill="none" xmlns="http://www.w3.org/2000/svg">
<g id="Warning">
<path id="Vector" d="M27.75 22.0418L17.502 4.24453C17.2459 3.80851 16.8803 3.44698 16.4414 3.19577C16.0026 2.94457 15.5057 2.81242 15 2.81242C14.4943 2.81242 13.9974 2.94457 13.5586 3.19577C13.1197 3.44698 12.7541 3.80851 12.498 4.24453L2.25 22.0418C2.0036 22.4635 1.87374 22.9432 1.87374 23.4316C1.87374 23.9201 2.0036 24.3997 2.25 24.8215C2.50281 25.2601 2.86778 25.6236 3.30745 25.8747C3.74713 26.1257 4.24568 26.2553 4.75195 26.25H25.248C25.7539 26.2548 26.252 26.1251 26.6912 25.8741C27.1304 25.6231 27.495 25.2598 27.7477 24.8215C27.9944 24.4 28.1247 23.9204 28.1251 23.432C28.1255 22.9435 27.996 22.4637 27.75 22.0418ZM26.1246 23.8828C26.0353 24.0352 25.907 24.1611 25.753 24.2476C25.5989 24.3341 25.4247 24.3781 25.248 24.375H4.75195C4.57532 24.3781 4.40106 24.3341 4.24703 24.2476C4.09299 24.1611 3.96473 24.0352 3.87539 23.8828C3.79447 23.7458 3.75178 23.5896 3.75178 23.4305C3.75178 23.2713 3.79447 23.1151 3.87539 22.9781L14.1234 5.18086C14.2146 5.02919 14.3434 4.90368 14.4974 4.81655C14.6515 4.72942 14.8254 4.68363 15.0023 4.68363C15.1793 4.68363 15.3532 4.72942 15.5072 4.81655C15.6613 4.90368 15.7901 5.02919 15.8813 5.18086L26.1293 22.9781C26.2095 23.1156 26.2514 23.272 26.2506 23.4311C26.2497 23.5902 26.2062 23.7462 26.1246 23.8828ZM14.0625 16.875V12.1875C14.0625 11.9389 14.1613 11.7004 14.3371 11.5246C14.5129 11.3488 14.7514 11.25 15 11.25C15.2486 11.25 15.4871 11.3488 15.6629 11.5246C15.8387 11.7004 15.9375 11.9389 15.9375 12.1875V16.875C15.9375 17.1236 15.8387 17.3621 15.6629 17.5379C15.4871 17.7137 15.2486 17.8125 15 17.8125C14.7514 17.8125 14.5129 17.7137 14.3371 17.5379C14.1613 17.3621 14.0625 17.1236 14.0625 16.875ZM16.4062 21.0938C16.4062 21.3719 16.3238 21.6438 16.1693 21.875C16.0147 22.1063 15.7951 22.2865 15.5381 22.393C15.2812 22.4994 14.9984 22.5272 14.7257 22.473C14.4529 22.4187 14.2023 22.2848 14.0056 22.0881C13.809 21.8915 13.675 21.6409 13.6208 21.3681C13.5665 21.0953 13.5944 20.8126 13.7008 20.5556C13.8072 20.2986 13.9875 20.079 14.2187 19.9245C14.45 19.77 14.7219 19.6875 15 19.6875C15.373 19.6875 15.7306 19.8357 15.9944 20.0994C16.2581 20.3631 16.4062 20.7208 16.4062 21.0938Z" fill="var(--fill-0, #FE3D16)"/>
</g>
</svg>
