<svg width="30" height="30" viewBox="0 0 30 30" fill="none" xmlns="http://www.w3.org/2000/svg">
  <rect width="30" height="30" rx="8" fill="#5A46FA"/>
  <path d="M15.3042 7C19.2259 7.00993 22.3268 9.30048 23.2812 12.7355L18.3586 14.0808C18.0173 12.5817 16.8577 11.5789 15.3042 11.568V7Z" fill="white"/>
  <path d="M14.2944 11.6668C12.9668 12.0908 12.1237 13.3575 12.1237 14.973C12.1237 16.9687 13.4102 18.4321 15.3072 18.4321C17.1549 18.4321 18.4521 17.0328 18.4897 15.0614L23.5219 13.6862C23.5832 14.1022 23.6149 14.5317 23.6149 14.973C23.6149 19.6517 20.0171 23 15.3072 23C10.5101 23 6.99951 19.6295 6.99951 14.973C6.99951 10.6784 10.1079 7.45027 14.2944 7V11.6668Z" fill="white" fill-opacity="0.6"/>
</svg>
