<svg width="24" height="24" viewBox="0 0 24 24" fill="none" xmlns="http://www.w3.org/2000/svg">
  <path fill-rule="evenodd" clip-rule="evenodd" d="M7.69478 3.35013C8.04501 3.34989 8.34073 3.34969 8.6315 3.40937C8.88746 3.4619 9.13515 3.54878 9.36783 3.66766C9.63216 3.8027 9.86296 3.98759 10.1363 4.20657L11.5657 5.35016L17.8356 5.35016C18.3654 5.35014 18.8166 5.35013 19.1871 5.38039C19.5762 5.41219 19.9548 5.48182 20.3167 5.66624C20.8624 5.94427 21.3061 6.38791 21.5841 6.93358C21.7685 7.29552 21.8381 7.67411 21.8699 8.06327C21.9002 8.43369 21.9002 8.88486 21.9002 9.41471V16.5856C21.9002 17.1154 21.9002 17.5666 21.8699 17.937C21.8381 18.3262 21.7685 18.7048 21.5841 19.0667C21.3061 19.6124 20.8624 20.056 20.3167 20.3341C19.9548 20.5185 19.5762 20.5881 19.1871 20.6199C18.8166 20.6502 18.3655 20.6502 17.8356 20.6502H6.16482C5.63497 20.6502 5.18377 20.6502 4.81335 20.6199C4.42419 20.5881 4.0456 20.5185 3.68367 20.3341C3.138 20.056 2.69436 19.6124 2.41632 19.0667C2.23191 18.7048 2.16228 18.3262 2.13048 17.937C2.10022 17.5666 2.10023 17.1155 2.10024 16.5856V7.41475C2.10023 6.88491 2.10022 6.43369 2.13048 6.06327C2.16228 5.67411 2.23191 5.29552 2.41632 4.93358C2.69436 4.38791 3.138 3.94427 3.68367 3.66624C4.0456 3.48182 4.42419 3.41219 4.81335 3.38039C5.18378 3.35013 5.63496 3.35014 6.16483 3.35016L7.69478 3.35013ZM5.80025 5.15006C4.9857 5.15006 4.79186 5.16116 4.66034 5.2039C4.32546 5.31271 4.06291 5.57526 3.9541 5.91014C3.91137 6.04166 3.90026 6.2355 3.90026 7.05006V16.9501C3.90026 17.7646 3.91137 17.9585 3.9541 18.09C4.06291 18.4249 4.32546 18.6874 4.66034 18.7962C4.79186 18.839 4.9857 18.8501 5.80025 18.8501H18.2002C19.0148 18.8501 19.2086 18.839 19.3401 18.7962C19.675 18.6874 19.9376 18.4249 20.0464 18.09C20.0891 17.9585 20.1002 17.7646 20.1002 16.9501V9.05006C20.1002 8.2355 20.0891 8.04166 20.0464 7.91014C19.9376 7.57526 19.675 7.31271 19.3401 7.2039C19.2086 7.16116 19.0148 7.15006 18.2002 7.15006H11.2501C11.0457 7.15006 10.8474 7.08051 10.6878 6.95284L8.95479 5.56641C8.7197 5.37834 8.66556 5.33745 8.61385 5.30646C8.48608 5.22991 8.34409 5.1801 8.19649 5.16006C8.13676 5.15195 8.06894 5.15006 7.76788 5.15006H5.80025Z" fill="currentColor"/>
</svg>
